<svg xmlns="http://www.w3.org/2000/svg" viewBox="0 0 240 240" role="img" aria-label="Two people holding an unrolled site plan over a table"><line x1="30" y1="178" x2="210" y2="178" stroke="#FCFBFA" stroke-width="7" stroke-linecap="round" stroke-linejoin="round" fill="none"></line><line x1="54" y1="178" x2="54" y2="212" stroke="#FCFBFA" stroke-width="5" stroke-linecap="round" stroke-linejoin="round"></line><line x1="186" y1="178" x2="186" y2="212" stroke="#FCFBFA" stroke-width="5" stroke-linecap="round" stroke-linejoin="round"></line><g stroke="#FCFBFA" stroke-width="5" stroke-linecap="round" stroke-linejoin="round"><rect x="26" y="104" width="32" height="64" rx="16" fill="#1E1919"></rect><circle cx="42" cy="86" r="13" fill="#1E1919"></circle><rect x="182" y="104" width="32" height="64" rx="16" fill="#1E1919"></rect><circle cx="198" cy="86" r="13" fill="#1E1919"></circle></g><path d="M76 112 H164 Q170 112 170 118 V160 Q170 166 164 166 H76 Q70 166 70 160 V118 Q70 112 76 112 Z" fill="#4A4845" transform="translate(7 7)"></path><path d="M76 112 H164 Q170 112 170 118 V160 Q170 166 164 166 H76 Q70 166 70 160 V118 Q70 112 76 112 Z" fill="#1E1919"></path><path d="M150 166 H76 Q70 166 70 160 V118 Q70 112 76 112 H164 Q170 112 170 118 V144" stroke="#FCFBFA" stroke-width="7" stroke-linecap="round" stroke-linejoin="round" fill="none"></path><line x1="56" y1="130" x2="70" y2="134" stroke="#FCFBFA" stroke-width="5" stroke-linecap="round" stroke-linejoin="round"></line><line x1="184" y1="130" x2="170" y2="134" stroke="#FCFBFA" stroke-width="5" stroke-linecap="round" stroke-linejoin="round"></line><path d="M106 152 V134 L120 124 L134 134 V152 Z" stroke="#FF7700" stroke-width="5" stroke-linecap="round" stroke-linejoin="round" fill="none"></path></svg>