<?xml version="1.0" encoding="UTF-8" standalone="no"?>
<!DOCTYPE svg PUBLIC "-//W3C//DTD SVG 1.1//EN" "http://www.w3.org/Graphics/SVG/1.1/DTD/svg11.dtd">
<svg width="100%" height="100%" viewBox="0 0 355 355" version="1.1" xmlns="http://www.w3.org/2000/svg" xmlns:xlink="http://www.w3.org/1999/xlink" xml:space="preserve" xmlns:serif="http://www.serif.com/" style="fill-rule:evenodd;clip-rule:evenodd;stroke-linejoin:round;stroke-miterlimit:2;">
    <g transform="matrix(1,0,0,1,-1062.890506,-1370.07874)">
        <g id="Colour">
            <g transform="matrix(0.857143,0,0,0.857143,-101.237345,347.581552)">
                <g transform="matrix(1,0,0,0.891237,284.386273,872.15136)">
                    <path d="M1337.856,823.548L1109.161,823.356C1089.593,823.334 1073.746,805.277 1073.763,783.024L1073.981,499.056C1073.993,483.894 1081.487,470.023 1093.375,463.16L1264.653,364.272C1274.734,358.452 1286.652,358.452 1296.732,364.272L1467.992,463.149C1479.89,470.018 1487.386,483.906 1487.386,499.081L1487.386,783.443C1487.386,794.138 1483.648,804.394 1476.995,811.952C1470.343,819.51 1461.321,823.751 1451.918,823.74L1393.388,823.726C1398.225,816.975 1401.118,808.421 1401.118,799.12C1401.118,794.02 1400.249,789.145 1398.666,784.668L1439.996,784.674C1443.131,784.678 1446.138,783.264 1448.355,780.745C1450.573,778.225 1451.819,774.807 1451.819,771.242L1451.819,507.986C1451.819,502.927 1449.32,498.298 1445.354,496.008L1286.016,404.015C1282.656,402.075 1278.684,402.075 1275.323,404.015L1115.979,496.012C1112.017,498.3 1109.519,502.924 1109.515,507.978L1109.31,770.872C1109.304,778.29 1114.586,784.309 1121.109,784.316L1332.768,784.491C1331.145,789.016 1330.252,793.953 1330.252,799.12C1330.252,808.34 1333.095,816.826 1337.856,823.548Z"/>
                </g>
                <g transform="matrix(1,0,0,1,-265.176632,31.630859)">
                    <path d="M1843.983,1414.121C1843.983,1404.844 1846.962,1395.445 1852.919,1385.923C1858.876,1376.402 1867.567,1368.516 1878.993,1362.266C1890.419,1356.016 1903.749,1352.891 1918.983,1352.891C1933.144,1352.891 1945.644,1355.503 1956.483,1360.728C1967.323,1365.953 1975.697,1373.057 1981.606,1382.041C1987.514,1391.026 1990.468,1400.791 1990.468,1411.338C1990.468,1419.639 1988.783,1426.914 1985.414,1433.164C1982.045,1439.414 1978.041,1444.81 1973.402,1449.351C1968.764,1453.892 1960.439,1461.534 1948.427,1472.276C1945.107,1475.303 1942.445,1477.964 1940.443,1480.259C1938.441,1482.554 1936.952,1484.654 1935.976,1486.558C1934.999,1488.462 1934.242,1490.367 1933.705,1492.271C1933.168,1494.175 1932.362,1497.52 1931.288,1502.305C1929.433,1512.461 1923.622,1517.539 1913.857,1517.539C1908.778,1517.539 1904.506,1515.879 1901.039,1512.559C1897.572,1509.239 1895.839,1504.307 1895.839,1497.764C1895.839,1489.561 1897.108,1482.456 1899.648,1476.451C1902.187,1470.445 1905.556,1465.171 1909.755,1460.63C1913.954,1456.089 1919.618,1450.694 1926.747,1444.444C1932.997,1438.975 1937.514,1434.849 1940.297,1432.066C1943.08,1429.283 1945.424,1426.182 1947.328,1422.764C1949.233,1419.346 1950.185,1415.635 1950.185,1411.631C1950.185,1403.819 1947.279,1397.227 1941.469,1391.856C1935.658,1386.485 1928.163,1383.799 1918.983,1383.799C1908.241,1383.799 1900.331,1386.509 1895.253,1391.929C1890.175,1397.349 1885.878,1405.332 1882.362,1415.879C1879.042,1426.914 1872.743,1432.432 1863.466,1432.432C1857.997,1432.432 1853.383,1430.503 1849.623,1426.646C1845.863,1422.788 1843.983,1418.614 1843.983,1414.121ZM1915.468,1574.668C1909.511,1574.668 1904.311,1572.74 1899.867,1568.882C1895.424,1565.025 1893.202,1559.629 1893.202,1552.696C1893.202,1546.543 1895.351,1541.368 1899.648,1537.168C1903.944,1532.969 1909.218,1530.87 1915.468,1530.87C1921.62,1530.87 1926.796,1532.969 1930.995,1537.168C1935.194,1541.368 1937.294,1546.543 1937.294,1552.696C1937.294,1559.532 1935.097,1564.903 1930.702,1568.809C1926.308,1572.715 1921.23,1574.668 1915.468,1574.668Z" style="fill:rgb(255,119,0);fill-rule:nonzero;"/>
                </g>
            </g>
        </g>
    </g>
</svg>
