<svg viewBox="0 0 678 591" version="1.1" xmlns="http://www.w3.org/2000/svg" style="fill-rule:evenodd;clip-rule:evenodd;stroke-linejoin:round;stroke-miterlimit:2;">
    <g transform="matrix(1,0,0,1,-901.50888,-2580.708661)">
        <g id="Colour" transform="matrix(1,0,0,1,547.178172,-17.716535)">
            <g transform="matrix(1,0,0,1,-1223.708203,630.616702)">
                <g transform="matrix(3.569381,0,0,3.569381,1392.733602,2037.943894)">
                    <path d="M133.9,145.8L112.1,145.8L112.1,95.6L133.9,95.6L133.9,145.8ZM114.1,143.8L131.9,143.8L131.9,97.6L114.1,97.6L114.1,143.8Z" style="fill:rgb(255,119,0);fill-rule:nonzero;"/>
                </g>
                <g transform="matrix(3.569381,0,0,3.569381,1392.733602,2037.943894)">
                    <path d="M91,117.6L69.2,117.6L69.2,95.8L91,95.8L91,117.6ZM71.2,115.6L89,115.6L89,97.8L71.2,97.8L71.2,115.6Z" style="fill:rgb(255,119,0);fill-rule:nonzero;"/>
                </g>
                <g transform="matrix(0.856651,0,0,0.763479,658.19833,1929.450822)">
                    <path d="M1450.773,192.794C1449.685,190.053 1447.798,187.753 1445.354,186.342L1286.016,94.349C1282.656,92.409 1278.684,92.409 1275.323,94.349L1115.979,186.346C1112.017,188.634 1109.519,193.258 1109.515,198.312L1109.31,770.872C1109.304,778.29 1114.586,784.309 1121.109,784.316L1310.884,784.529L1310.884,823.582L1109.161,823.356C1089.593,823.334 1073.746,805.277 1073.763,783.024L1073.981,189.39C1073.993,174.228 1081.487,160.357 1093.375,153.494L1264.653,54.606C1274.734,48.786 1286.652,48.786 1296.732,54.606L1467.992,153.483C1468.359,153.694 1468.721,153.913 1469.08,154.137C1469.438,153.913 1469.8,153.694 1470.167,153.483L1641.427,54.606C1651.507,48.786 1663.425,48.786 1673.506,54.606L1844.785,153.494C1856.672,160.357 1864.166,174.228 1864.178,189.39L1864.396,783.024C1864.413,805.277 1848.566,823.334 1828.998,823.356L1627.275,823.582L1627.275,784.529L1817.05,784.316C1823.573,784.309 1828.855,778.29 1828.85,770.872L1828.645,198.312C1828.641,193.258 1826.143,188.634 1822.18,186.346L1662.836,94.349C1659.475,92.409 1655.503,92.409 1652.143,94.349L1492.805,186.342C1490.361,187.753 1488.474,190.053 1487.386,192.794L1487.386,776.767C1487.968,778.234 1488.783,779.585 1489.804,780.745C1492.021,783.264 1495.029,784.678 1498.163,784.674L1509.165,784.662L1509.165,823.715L1428.994,823.715L1428.994,784.662L1439.996,784.674C1443.131,784.678 1446.138,783.264 1448.355,780.745C1449.376,779.585 1450.191,778.234 1450.773,776.767L1450.773,192.794Z"/>
                </g>
                <g transform="matrix(3.569381,0,0,3.569381,1392.733602,1801.520299)">
                    <path d="M91,117.6L69.2,117.6L69.2,95.8L91,95.8L91,117.6ZM71.2,115.6L89,115.6L89,97.8L71.2,97.8L71.2,115.6Z" style="fill:rgb(255,119,0);fill-rule:nonzero;"/>
                </g>
                <g transform="matrix(3.569381,0,0,3.569381,1545.860057,1801.520299)">
                    <path d="M91,117.6L69.2,117.6L69.2,95.8L91,95.8L91,117.6ZM71.2,115.6L89,115.6L89,97.8L71.2,97.8L71.2,115.6Z" style="fill:rgb(255,119,0);fill-rule:nonzero;"/>
                </g>
                <g transform="matrix(-3.569381,0,0,3.569381,2440.641421,2037.943894)">
                    <path d="M133.9,145.8L112.1,145.8L112.1,95.6L133.9,95.6L133.9,145.8ZM114.1,143.8L131.9,143.8L131.9,97.6L114.1,97.6L114.1,143.8Z" style="fill:rgb(255,119,0);fill-rule:nonzero;"/>
                </g>
                <g transform="matrix(-3.569381,0,0,3.569381,2440.641421,2037.943894)">
                    <path d="M91,117.6L69.2,117.6L69.2,95.8L91,95.8L91,117.6ZM71.2,115.6L89,115.6L89,97.8L71.2,97.8L71.2,115.6Z" style="fill:rgb(255,119,0);fill-rule:nonzero;"/>
                </g>
                <g transform="matrix(-3.569381,0,0,3.569381,2440.641421,1801.520299)">
                    <path d="M91,117.6L69.2,117.6L69.2,95.8L91,95.8L91,117.6ZM71.2,115.6L89,115.6L89,97.8L71.2,97.8L71.2,115.6Z" style="fill:rgb(255,119,0);fill-rule:nonzero;"/>
                </g>
                <g transform="matrix(-3.569381,0,0,3.569381,2287.514966,1801.520299)">
                    <path d="M91,117.6L69.2,117.6L69.2,95.8L91,95.8L91,117.6ZM71.2,115.6L89,115.6L89,97.8L71.2,97.8L71.2,115.6Z" style="fill:rgb(255,119,0);fill-rule:nonzero;"/>
                </g>
            </g>
        </g>
    </g>
</svg>